<svg id="visual" viewBox="0 0 1366 676" width="1366" height="676" xmlns="http://www.w3.org/2000/svg" xmlns:xlink="http://www.w3.org/1999/xlink" version="1.1"><rect x="0" y="0" width="1366" height="676" fill="#f8f8f8"></rect><defs><linearGradient id="grad1_0" x1="50.5%" y1="0%" x2="100%" y2="100%"><stop offset="9.585798816568047%" stop-color="#f8f8f8" stop-opacity="1"></stop><stop offset="90.41420118343194%" stop-color="#f8f8f8" stop-opacity="1"></stop></linearGradient></defs><defs><linearGradient id="grad2_0" x1="0%" y1="0%" x2="49.5%" y2="100%"><stop offset="9.585798816568047%" stop-color="#f8f8f8" stop-opacity="1"></stop><stop offset="90.41420118343194%" stop-color="#f8f8f8" stop-opacity="1"></stop></linearGradient></defs><g transform="translate(1366, 0)"><path d="M0 405.6C-55.3 402.3 -110.6 398.9 -155.2 374.7C-199.8 350.5 -233.8 305.5 -264.5 264.5C-295.1 223.5 -322.6 186.5 -345.5 143.1C-368.5 99.7 -387.1 49.9 -405.6 0L0 0Z" fill="#3996ad"></path></g><g transform="translate(0, 676)"><path d="M0 -405.6C55.2 -401.8 110.3 -398.1 155.2 -374.7C200.1 -351.4 234.8 -308.4 268.7 -268.7C302.6 -229 335.8 -192.7 358.5 -148.5C381.2 -104.3 393.4 -52.1 405.6 0L0 0Z" fill="#3996ad"></path></g></svg>