<svg xmlns="http://www.w3.org/2000/svg" fill="none" viewBox="0 0 3000 3000"><g clip-path="url(#a)" fill="#000000" class="color000 svgShape"><path fill="#f1f1f1" fill-rule="evenodd" d="M2079.2 879.686C2079.2 863.081 2092.66 849.619 2109.27 849.619H2402.42C2419.03 849.619 2432.49 863.081 2432.49 879.686V2608.53C2432.49 2625.14 2419.03 2638.6 2402.42 2638.6H2109.27C2092.66 2638.6 2079.2 2625.14 2079.2 2608.53V879.686ZM2109.27 864.653C2100.97 864.653 2094.24 871.383 2094.24 879.686V2608.53C2094.24 2616.83 2100.97 2623.57 2109.27 2623.57H2402.42C2410.72 2623.57 2417.46 2616.83 2417.46 2608.53V879.686C2417.46 871.383 2410.72 864.653 2402.42 864.653H2109.27Z" clip-rule="evenodd" class="colorF1F1F1 svgShape"/><path fill="#d05244" fill-rule="evenodd" d="M2359.59 1877.84C2203.87 2160.57 2149.81 2485.35 2141.14 2629.56L2126.13 2628.66C2134.89 2482.96 2189.32 2155.84 2346.42 1870.59L2359.59 1877.84Z" clip-rule="evenodd" class="colorD05244 svgShape"/><path fill="#f15846" d="M2367.17 1779.71C2344.53 1821.07 2345.26 1855.75 2350.7 1877.68 2439.94 1823.93 2436.91 1756.39 2428.93 1716.95 2409.5 1724.89 2390.38 1737.32 2367.17 1779.71zM2379.18 1969.9C2349.55 1981.24 2333.12 1992.89 2297.83 1987.51 2357.66 1909.8 2425.62 1900.28 2452.38 1903.87 2448 1921.78 2433.05 1949.28 2379.18 1969.9zM2301.85 1977.69C2276.22 1964.85 2232.06 1911.9 2260.45 1802.82 2282.04 1815.47 2320.54 1868.16 2301.85 1977.69zM2242.14 2127.95C2270.28 2143.29 2345.9 2153.82 2423.33 2073.26 2399.82 2061 2330.67 2054.77 2242.14 2127.95zM2246.16 2118.13C2210.52 2105.31 2145.52 2045.37 2170.61 1908.12 2202.06 1939.8 2261.19 2026.17 2246.16 2118.13zM2202.05 2271.25C2227.89 2295.06 2307.69 2312.35 2420.13 2191.07 2378.93 2185.39 2277.63 2193.47 2202.05 2271.25zM2160.3 2450.92C2192.3 2470.48 2280.95 2485.99 2379.59 2391.53 2340.86 2373.33 2242.78 2359.73 2160.3 2450.92z" class="colorF15846 svgShape"/><path fill="#e9b11d" fill-rule="evenodd" d="M2564.66 2095.8C2381.41 2257.47 2236.78 2480 2152.59 2636.44L2139.35 2629.31C2223.95 2472.12 2369.58 2247.86 2554.71 2084.53L2564.66 2095.8Z" clip-rule="evenodd" class="colorE9B11D svgShape"/><path fill="#fac22f" d="M2612.85 1990.8C2573.13 2018.34 2558.63 2070.18 2556.35 2092.66 2677.64 2077.02 2719.58 1993.47 2725.39 1953.65 2704.42 1954.56 2652.57 1963.27 2612.85 1990.8zM2586.82 2210.17C2519.18 2216.97 2480.42 2191.68 2469.49 2178.18 2597.88 2130.25 2677.93 2143.11 2701.9 2155.53 2691.73 2170.91 2654.46 2203.37 2586.82 2210.17zM2476.59 2170.29C2456.8 2149.55 2433.12 2084.81 2496.68 1991.72 2512.72 2010.92 2531.17 2073.51 2476.59 2170.29zM2369.65 2291.57C2390.95 2315.5 2458.58 2350.95 2558.66 2301.27 2540.67 2281.79 2477.69 2252.57 2369.65 2291.57zM2376.75 2283.68C2347.53 2259.58 2306.59 2181.21 2376.56 2060.49 2395.46 2100.94 2421.95 2202.2 2376.75 2283.68zM2283.52 2412.91C2299.81 2444.04 2369.08 2487.27 2515.87 2411.08 2479.01 2391.82 2380.93 2365.22 2283.52 2412.91zM2284.37 2407.08C2260.55 2386.75 2221.41 2320.54 2255.35 2218.37 2275.97 2240.22 2310.64 2308.55 2284.37 2407.08zM2183.55 2567.93C2207.07 2597.15 2285.27 2641.68 2410.02 2586.07 2379.71 2555.87 2291.98 2509.95 2183.55 2567.93z" class="colorFAC22F svgShape"/><path fill="#e5e5e5" d="M380.424 879.686C380.424 867.232 390.52 857.136 402.974 857.136H823.91C836.364 857.136 846.46 867.232 846.46 879.686V1413.11C846.46 1425.57 836.364 1435.66 823.91 1435.66H402.974C390.52 1435.66 380.424 1425.57 380.424 1413.11V879.686Z" class="colorE5E5E5 svgShape"/><path fill="#ffffff" d="M452.74 951.999C452.74 939.545 462.836 929.449 475.29 929.449H751.595C764.049 929.449 774.145 939.545 774.145 951.999V1340.8C774.145 1353.25 764.049 1363.35 751.595 1363.35H475.29C462.836 1363.35 452.74 1353.25 452.74 1340.8V951.999Z" class="colorfff svgShape"/><path fill="#f1f1f1" d="M714.108 1106.22L597.371 1205.12V1363.35H751.593C764.048 1363.35 774.144 1353.25 774.144 1340.8V1152.38L714.108 1106.22Z" class="colorF1F1F1 svgShape"/><path fill="#e5e5e5" d="M569.919 1098.19L452.74 1200.17V1340.8C452.74 1353.25 462.836 1363.35 475.29 1363.35H751.595C764.049 1363.35 774.145 1353.25 774.145 1340.8V1271.56L569.919 1098.19Z" class="colorE5E5E5 svgShape"/><path fill="#f1f1f1" d="M677.722 1045.96C677.722 1065.93 661.534 1082.12 641.564 1082.12C621.595 1082.12 605.406 1065.93 605.406 1045.96C605.406 1026 621.595 1009.81 641.564 1009.81C661.534 1009.81 677.722 1026 677.722 1045.96Z" class="colorF1F1F1 svgShape"/><path fill="#e5e5e5" d="M1086.99 669.216C1086.99 611.096 1134.11 563.981 1192.23 563.981H2101.75C2159.87 563.981 2206.98 611.096 2206.98 669.216V2525.85C2206.98 2583.96 2159.87 2631.08 2101.75 2631.08H1192.23C1134.11 2631.08 1086.99 2583.96 1086.99 2525.85V669.216Z" class="colorE5E5E5 svgShape"/><path fill="#3e3d3d" fill-rule="evenodd" d="M1079.48 669.218C1079.48 606.947 1129.96 556.467 1192.23 556.467H2101.75C2164.02 556.467 2214.5 606.947 2214.5 669.218V2525.85C2214.5 2588.12 2164.02 2638.6 2101.75 2638.6H1192.23C1129.96 2638.6 1079.48 2588.12 1079.48 2525.85V669.218ZM1192.23 571.5C1138.26 571.5 1094.51 615.25 1094.51 669.218V2525.85C1094.51 2579.82 1138.26 2623.56 1192.23 2623.56H2101.75C2155.72 2623.56 2199.47 2579.82 2199.47 2525.85V669.218C2199.47 615.25 2155.72 571.5 2101.75 571.5H1192.23Z" clip-rule="evenodd" class="color3E3D3D svgShape"/><path fill="#ffffff" d="M1124.58 676.733C1124.58 635.219 1158.23 601.565 1199.75 601.565H2094.24C2135.75 601.565 2169.4 635.219 2169.4 676.733V2465.71C2169.4 2507.23 2135.75 2540.88 2094.24 2540.88H1199.75C1158.23 2540.88 1124.58 2507.23 1124.58 2465.71V676.733Z" class="colorfff svgShape"/><path fill="#e5e5e5" d="M1425.25 601.565H1891.28L1877.07 641.687C1869.63 662.693 1849.76 676.733 1827.47 676.733H1489.06C1466.77 676.733 1446.9 662.693 1439.46 641.687L1425.25 601.565Z" class="colorE5E5E5 svgShape"/><path fill="#f1f1f1" fill-rule="evenodd" d="M1519.35 1149.89C1544.82 1103.53 1594.12 1072.11 1650.75 1072.11C1707.38 1072.11 1756.68 1103.53 1782.15 1149.89C1782.07 1149.98 1781.99 1150.08 1781.91 1150.17C1750.2 1187.06 1703.2 1210.42 1650.75 1210.42C1598.16 1210.42 1551.06 1186.94 1519.35 1149.89Z" clip-rule="evenodd" class="colorF1F1F1 svgShape"/><path fill="#f1f1f1" d="M1717.67 978.983C1717.67 994.945 1711.59 1009.54 1701.52 1020.77C1689.25 1034.45 1671.05 1043.12 1650.75 1043.12C1613.79 1043.12 1583.82 1014.4 1583.82 978.983C1583.82 943.563 1613.79 914.849 1650.75 914.849C1687.71 914.849 1717.67 943.563 1717.67 978.983Z" class="colorF1F1F1 svgShape"/><path fill="#f1f1f1" fill-rule="evenodd" d="M1650.75 872.169C1559.42 872.169 1485.38 946.207 1485.38 1037.54 1485.38 1128.87 1559.42 1202.91 1650.75 1202.91 1700.92 1202.91 1745.87 1180.57 1776.21 1145.27 1801.09 1116.33 1816.12 1078.7 1816.12 1037.54 1816.12 946.207 1742.08 872.169 1650.75 872.169zM1470.35 1037.54C1470.35 937.904 1551.12 857.136 1650.75 857.136 1750.38 857.136 1831.15 937.904 1831.15 1037.54 1831.15 1082.43 1814.74 1123.51 1787.61 1155.07 1754.54 1193.55 1705.49 1217.94 1650.75 1217.94 1551.12 1217.94 1470.35 1137.17 1470.35 1037.54zM2019.07 1405.86H1282.43V1390.82H2019.07V1405.86zM2019.07 2315.38H1282.43V2300.35H2019.07V2315.38zM1786.05 2420.61H1282.43V2405.58H1786.05V2420.61z" clip-rule="evenodd" class="colorF1F1F1 svgShape"/><path fill="#53b3cc" fill-rule="evenodd" d="M1477.87 1488.54H1274.91V1458.47H1477.87V1488.54zM1823.63 1300.62H1477.86V1270.56H1823.63V1300.62zM1477.87 1789.21H1274.91V1759.14H1477.87V1789.21z" clip-rule="evenodd" class="color53B3CC svgShape"/><path fill="#f1f1f1" d="M1267.39 1563.71C1267.39 1551.25 1277.49 1541.16 1289.94 1541.16H2019.07C2031.52 1541.16 2041.62 1551.25 2041.62 1563.71V1646.39C2041.62 1658.85 2031.52 1668.94 2019.07 1668.94H1289.94C1277.49 1668.94 1267.39 1658.85 1267.39 1646.39V1563.71zM1267.39 1856.86C1267.39 1844.41 1277.49 1834.31 1289.94 1834.31H2019.07C2031.52 1834.31 2041.62 1844.41 2041.62 1856.86V1939.54C2041.62 1952 2031.52 1962.09 2019.07 1962.09H1289.94C1277.49 1962.09 1267.39 1952 1267.39 1939.54V1856.86z" class="colorF1F1F1 svgShape"/><path fill="#53b3cc" d="M1455.31 2097.39C1455.31 2084.94 1465.41 2074.84 1477.86 2074.84H1831.15C1843.6 2074.84 1853.7 2084.94 1853.7 2097.39V2180.08C1853.7 2192.53 1843.6 2202.63 1831.15 2202.63H1477.86C1465.41 2202.63 1455.31 2192.53 1455.31 2180.08V2097.39Z" class="color53B3CC svgShape"/><path fill="#c4c4c4" d="M1350.08 1608.81C1350.08 1617.11 1343.35 1623.85 1335.05 1623.85 1326.74 1623.85 1320.01 1617.11 1320.01 1608.81 1320.01 1600.51 1326.74 1593.78 1335.05 1593.78 1343.35 1593.78 1350.08 1600.51 1350.08 1608.81zM1432.76 1608.81C1432.76 1617.11 1426.03 1623.84 1417.73 1623.84 1409.43 1623.84 1402.7 1617.11 1402.7 1608.81 1402.7 1600.51 1409.43 1593.77 1417.73 1593.77 1426.03 1593.77 1432.76 1600.51 1432.76 1608.81zM1515.45 1608.81C1515.45 1617.11 1508.72 1623.84 1500.41 1623.84 1492.11 1623.84 1485.38 1617.11 1485.38 1608.81 1485.38 1600.51 1492.11 1593.77 1500.41 1593.77 1508.72 1593.77 1515.45 1600.51 1515.45 1608.81zM1598.13 1608.81C1598.13 1617.11 1591.4 1623.84 1583.1 1623.84 1574.79 1623.84 1568.06 1617.11 1568.06 1608.81 1568.06 1600.51 1574.79 1593.77 1583.1 1593.77 1591.4 1593.77 1598.13 1600.51 1598.13 1608.81zM1680.81 1608.81C1680.81 1617.11 1674.08 1623.84 1665.78 1623.84 1657.48 1623.84 1650.75 1617.11 1650.75 1608.81 1650.75 1600.51 1657.48 1593.77 1665.78 1593.77 1674.08 1593.77 1680.81 1600.51 1680.81 1608.81zM1763.5 1608.81C1763.5 1617.11 1756.77 1623.84 1748.46 1623.84 1740.16 1623.84 1733.43 1617.11 1733.43 1608.81 1733.43 1600.51 1740.16 1593.77 1748.46 1593.77 1756.77 1593.77 1763.5 1600.51 1763.5 1608.81zM1846.18 1608.81C1846.18 1617.11 1839.45 1623.84 1831.15 1623.84 1822.85 1623.84 1816.12 1617.11 1816.12 1608.81 1816.12 1600.51 1822.85 1593.77 1831.15 1593.77 1839.45 1593.77 1846.18 1600.51 1846.18 1608.81zM1350.08 1901.96C1350.08 1910.26 1343.35 1916.99 1335.05 1916.99 1326.74 1916.99 1320.01 1910.26 1320.01 1901.96 1320.01 1893.66 1326.74 1886.93 1335.05 1886.93 1343.35 1886.93 1350.08 1893.66 1350.08 1901.96zM1432.76 1901.96C1432.76 1910.26 1426.03 1916.99 1417.73 1916.99 1409.43 1916.99 1402.7 1910.26 1402.7 1901.96 1402.7 1893.66 1409.43 1886.93 1417.73 1886.93 1426.03 1886.93 1432.76 1893.66 1432.76 1901.96zM1515.45 1901.96C1515.45 1910.26 1508.72 1916.99 1500.41 1916.99 1492.11 1916.99 1485.38 1910.26 1485.38 1901.96 1485.38 1893.66 1492.11 1886.93 1500.41 1886.93 1508.72 1886.93 1515.45 1893.66 1515.45 1901.96zM1598.13 1901.96C1598.13 1910.26 1591.4 1916.99 1583.1 1916.99 1574.79 1916.99 1568.06 1910.26 1568.06 1901.96 1568.06 1893.66 1574.79 1886.93 1583.1 1886.93 1591.4 1886.93 1598.13 1893.66 1598.13 1901.96zM1680.81 1901.96C1680.81 1910.26 1674.08 1916.99 1665.78 1916.99 1657.48 1916.99 1650.75 1910.26 1650.75 1901.96 1650.75 1893.66 1657.48 1886.93 1665.78 1886.93 1674.08 1886.93 1680.81 1893.66 1680.81 1901.96zM1763.5 1901.96C1763.5 1910.26 1756.77 1916.99 1748.46 1916.99 1740.16 1916.99 1733.43 1910.26 1733.43 1901.96 1733.43 1893.66 1740.16 1886.93 1748.46 1886.93 1756.77 1886.93 1763.5 1893.66 1763.5 1901.96zM1846.18 1901.96C1846.18 1910.26 1839.45 1916.99 1831.15 1916.99 1822.85 1916.99 1816.12 1910.26 1816.12 1901.96 1816.12 1893.66 1822.85 1886.93 1831.15 1886.93 1839.45 1886.93 1846.18 1893.66 1846.18 1901.96z" class="colorC4C4C4 svgShape"/><path fill="#3e3d3d" fill-rule="evenodd" d="M2086.72 736.868H2004.04V721.835H2086.72V736.868zM2086.72 781.969H2004.04V766.935H2086.72V781.969zM2086.72 827.069H2004.04V812.036H2086.72V827.069zM1247.05 724.037L1257.68 734.667 1217.89 774.453 1257.68 814.238 1247.05 824.868 1196.63 774.453 1247.05 724.037z" clip-rule="evenodd" class="color3E3D3D svgShape"/><path fill="#ffffff" d="M1550.11 2150.84C1550.11 2148.96 1549.44 2147.49 1548.09 2146.44 1546.77 2145.38 1544.43 2144.3 1541.08 2143.17 1537.73 2142.04 1534.99 2140.96 1532.86 2139.9 1525.94 2136.5 1522.47 2131.83 1522.47 2125.88 1522.47 2122.92 1523.33 2120.32 1525.04 2118.07 1526.78 2115.79 1529.23 2114.03 1532.38 2112.78 1535.54 2111.51 1539.09 2110.87 1543.03 2110.87 1546.87 2110.87 1550.31 2111.56 1553.34 2112.93 1556.4 2114.3 1558.77 2116.25 1560.46 2118.8 1562.15 2121.32 1562.99 2124.21 1562.99 2127.46H1550.15C1550.15 2125.28 1549.48 2123.6 1548.13 2122.4 1546.81 2121.2 1545.01 2120.6 1542.73 2120.6 1540.43 2120.6 1538.61 2121.11 1537.27 2122.14 1535.94 2123.14 1535.28 2124.43 1535.28 2125.99 1535.28 2127.36 1536.02 2128.61 1537.49 2129.74 1538.95 2130.84 1541.54 2131.99 1545.23 2133.19 1548.92 2134.36 1551.96 2135.63 1554.33 2137 1560.11 2140.33 1562.99 2144.92 1562.99 2150.77 1562.99 2155.44 1561.23 2159.11 1557.71 2161.78 1554.19 2164.45 1549.35 2165.78 1543.21 2165.78 1538.88 2165.78 1534.95 2165.01 1531.43 2163.47 1527.93 2161.9 1525.29 2159.77 1523.5 2157.08 1521.74 2154.36 1520.86 2151.24 1520.86 2147.72H1533.78C1533.78 2150.58 1534.51 2152.7 1535.98 2154.07 1537.47 2155.42 1539.88 2156.09 1543.21 2156.09 1545.34 2156.09 1547.02 2155.64 1548.24 2154.73 1549.49 2153.8 1550.11 2152.5 1550.11 2150.84zM1582.08 2165.04H1569.67V2125.33H1582.08V2165.04zM1568.94 2115.09C1568.94 2113.33 1569.58 2111.89 1570.85 2110.76 1572.12 2109.64 1573.77 2109.07 1575.8 2109.07 1577.83 2109.07 1579.49 2109.64 1580.76 2110.76 1582.03 2111.89 1582.67 2113.33 1582.67 2115.09 1582.67 2116.85 1582.03 2118.3 1580.76 2119.42 1579.49 2120.55 1577.83 2121.11 1575.8 2121.11 1573.77 2121.11 1572.12 2120.55 1570.85 2119.42 1569.58 2118.3 1568.94 2116.85 1568.94 2115.09zM1588.28 2144.9C1588.28 2140.88 1588.94 2137.33 1590.26 2134.25 1591.59 2131.17 1593.48 2128.79 1595.95 2127.13 1598.42 2125.44 1601.3 2124.6 1604.58 2124.6 1608.71 2124.6 1611.94 2125.99 1614.27 2128.78L1614.71 2125.33H1625.94V2163.54C1625.94 2167.04 1625.12 2170.07 1623.48 2172.64 1621.87 2175.24 1619.52 2177.22 1616.43 2178.59 1613.35 2179.98 1609.78 2180.68 1605.72 2180.68 1602.8 2180.68 1599.98 2180.13 1597.24 2179.03 1594.52 2177.93 1592.44 2176.5 1591 2174.73L1596.17 2167.47C1598.47 2170.18 1601.51 2171.54 1605.28 2171.54 1610.76 2171.54 1613.5 2168.73 1613.5 2163.1V2161.85C1611.12 2164.47 1608.13 2165.78 1604.5 2165.78 1599.66 2165.78 1595.75 2163.93 1592.76 2160.24 1589.77 2156.52 1588.28 2151.55 1588.28 2145.34V2144.9zM1600.69 2145.67C1600.69 2148.92 1601.3 2151.5 1602.52 2153.41 1603.75 2155.29 1605.46 2156.24 1607.66 2156.24 1610.33 2156.24 1612.27 2155.34 1613.5 2153.56V2136.86C1612.3 2135.05 1610.38 2134.14 1607.73 2134.14 1605.53 2134.14 1603.81 2135.13 1602.56 2137.11 1601.31 2139.07 1600.69 2141.92 1600.69 2145.67zM1644.33 2125.33L1644.73 2129.99C1647.47 2126.4 1651.25 2124.6 1656.07 2124.6 1660.21 2124.6 1663.29 2125.83 1665.32 2128.31 1667.38 2130.78 1668.44 2134.5 1668.51 2139.46V2165.04H1656.11V2139.98C1656.11 2137.97 1655.71 2136.5 1654.9 2135.57 1654.09 2134.62 1652.62 2134.14 1650.49 2134.14 1648.07 2134.14 1646.27 2135.1 1645.1 2137V2165.04H1632.73V2125.33H1644.33zM1736.6 2111.61V2146.58C1736.6 2150.55 1735.75 2153.99 1734.07 2156.9 1732.38 2159.78 1729.95 2161.99 1726.8 2163.5 1723.64 2165.02 1719.91 2165.78 1715.6 2165.78 1709.1 2165.78 1703.97 2164.09 1700.23 2160.71 1696.48 2157.34 1694.57 2152.71 1694.5 2146.84V2111.61H1707.46V2147.1C1707.6 2152.95 1710.32 2155.87 1715.6 2155.87 1718.27 2155.87 1720.29 2155.14 1721.66 2153.67 1723.03 2152.2 1723.72 2149.81 1723.72 2146.51V2111.61H1736.6zM1780.97 2145.48C1780.97 2151.65 1779.58 2156.58 1776.79 2160.27 1774.02 2163.94 1770.28 2165.78 1765.56 2165.78 1761.91 2165.78 1758.91 2164.45 1756.56 2161.78V2180.31H1744.2V2125.33H1755.76L1756.12 2129C1758.5 2126.07 1761.62 2124.6 1765.48 2124.6 1770.38 2124.6 1774.18 2126.41 1776.9 2130.03 1779.61 2133.63 1780.97 2138.58 1780.97 2144.9V2145.48zM1768.6 2144.71C1768.6 2137.66 1766.55 2134.14 1762.44 2134.14 1759.5 2134.14 1757.54 2135.19 1756.56 2137.3V2152.93C1757.64 2155.14 1759.62 2156.24 1762.51 2156.24 1766.45 2156.24 1768.48 2152.84 1768.6 2146.03V2144.71z" class="colorfff svgShape"/><path fill="#3e3d3d" d="M778.807 1392.49C748.74 1470.66 781.312 1562.87 801.357 1599.2L932.901 1666.85L1064.44 1851.01L1248.6 1864.38C1246.1 1853.1 1214.78 1723.98 1199.74 1696.92C1180.95 1663.09 1173.44 1625.51 1180.95 1576.65C1188.47 1527.79 1154.64 1448.86 1139.61 1403.76C1127.58 1367.68 1099.52 1366.18 1086.99 1369.94C1069.45 1344.88 1022.35 1293.27 974.243 1287.25C914.109 1279.74 816.39 1294.77 778.807 1392.49Z" class="color3E3D3D svgShape"/><path fill="#efcb96" d="M1065.81 1663.09L1092.11 1787.12C1098.38 1813.42 1111.66 1869.8 1114.66 1884.83C1118.42 1903.62 1043.26 1907.38 1020.71 1903.62C998.156 1899.87 874.13 1888.59 866.613 1884.83C860.6 1881.83 856.591 1825.95 855.338 1798.39L874.13 1715.71C798.962 1676.62 790.193 1571.64 795.204 1524.03C852.331 1509 849.074 1457.63 840.304 1433.83C856.137 1461.39 898.325 1518.77 940.419 1527.79C982.512 1536.81 1005.56 1539.07 1011.83 1539.07L1020.71 1587.92C1029.73 1578.9 1031.98 1541.57 1031.98 1524.03C1043.26 1510.25 1068.81 1490.96 1080.84 1524.03C1092.87 1557.1 1070.82 1592.93 1058.29 1606.71L1065.81 1663.09Z" class="colorEFCB96 svgShape"/><path fill="#53b3cc" fill-rule="evenodd" d="M1094.51 1762.9C1092 1799.23 1076.33 1843.49 968.089 1843.49C859.848 1843.49 853.975 1791.71 853.975 1755.38C768.786 1741.6 568.34 1796.72 448.073 1988.4C343.802 2154.59 300.775 2276.52 286.38 2343.82C281.189 2354.96 277.759 2364.96 276.55 2373.42C265.275 2452.35 325.409 2550.07 404.334 2535.03C429.778 2530.19 459.332 2487.74 487.928 2430.92L502.053 2433.56L487.019 2632.75H1362.72C1378.07 2549.91 1391.08 2443.04 1394.19 2332.08C1451.55 2067.33 1316.25 1777.93 1094.51 1762.9Z" clip-rule="evenodd" class="color53B3CC svgShape"/><path fill="#e5e5e5" d="M738.828 1888.59L723.795 2061.48H689.969L562.185 1862.28L573.46 1854.77L738.828 1888.59Z" class="colorE5E5E5 svgShape"/><path fill="#f1f1f1" d="M723.795 1899.87L708.761 2099.06H607.286L547.152 2001.34L562.185 1862.28L723.795 1899.87Z" class="colorF1F1F1 svgShape"/><path fill="#efcb96" d="M783.929 2177.99L840.305 2219.33L772.654 2313.29C772.654 2309.53 765.137 2295.25 735.071 2268.19C697.487 2234.36 697.487 2260.67 626.078 2189.26C554.669 2117.85 599.77 2031.41 626.078 2046.44C647.125 2058.47 705.004 2057.72 723.796 2061.48L727.554 2005.1L735.071 2008.86C774.158 2038.93 783.929 2134.14 783.929 2177.99Z" class="colorEFCB96 svgShape"/><path fill="#efcb96" d="M569.703 2140.4L562.186 2151.68L535.878 2144.16L509.569 2129.13C512.075 2122.86 484.764 2118.6 490.778 2106.58C498.294 2091.54 479.502 2038.92 483.261 2005.1C487.019 1971.27 532.12 1944.97 554.67 1948.72C577.22 1952.48 580.978 1978.79 596.011 2046.44C608.038 2100.56 583.484 2131.63 569.703 2140.4Z" class="colorEFCB96 svgShape"/><path fill="#46a4bc" fill-rule="evenodd" d="M1151.48 2213.35C1172.7 2170.24 1190.69 2119.65 1200.79 2086.2L1186.4 2081.85C1176.45 2114.8 1158.74 2164.56 1137.99 2206.71 1127.6 2227.8 1116.6 2246.69 1105.6 2260.57 1094.3 2274.83 1084.24 2282.2 1076.09 2283.29 1066.49 2284.57 1051.29 2282.14 1032.03 2276.54 1013.06 2271.03 991.168 2262.74 968.68 2253.19 923.72 2234.08 876.979 2210.15 847.702 2193.96L841.607 2190.59 748.433 2332.37 751.617 2336.6C788.26 2385.25 851.531 2455.17 922.503 2506.99 992.949 2558.43 1073.53 2593.86 1143.54 2568.4 1211.17 2543.81 1268.5 2497.84 1312.58 2450.72 1356.67 2403.58 1387.91 2354.88 1403.27 2324.17L1389.82 2317.44C1375.11 2346.86 1344.71 2394.37 1301.6 2440.45 1258.49 2486.53 1203.07 2530.76 1138.41 2554.27 1076.13 2576.92 1001.36 2545.96 931.368 2494.85 863.915 2445.6 803.258 2379.34 766.822 2331.76L846.533 2210.47C876.276 2226.67 920.264 2248.95 962.801 2267.02 985.57 2276.7 1008.07 2285.23 1027.83 2290.98 1047.28 2296.64 1065.12 2299.91 1078.08 2298.19 1092.47 2296.27 1105.74 2284.6 1117.39 2269.91 1129.33 2254.83 1140.88 2234.87 1151.48 2213.35zM486.301 2081.47L477.894 2090.04C445.189 2123.38 395.583 2177.32 352.974 2230.91 331.675 2257.7 312.025 2284.52 297.095 2308.72 282.325 2332.66 271.6 2354.92 269.108 2372.36L283.991 2374.49C286.01 2360.36 295.235 2340.37 309.89 2316.61 324.385 2293.12 343.634 2266.81 364.741 2240.26 403.778 2191.17 448.832 2141.67 481.045 2108.35 491.493 2126.56 510.088 2139.51 528.899 2148.42 547.501 2157.24 567.355 2162.61 582.529 2165.31 560.906 2235.62 523.505 2341.98 484.037 2421.88L497.515 2428.54C539.096 2344.37 578.191 2231.74 599.447 2161.37L602.023 2152.84 593.184 2151.74C578.787 2149.94 556.096 2144.67 535.337 2134.83 514.365 2124.9 496.85 2111.01 490.338 2092.78L486.301 2081.47z" clip-rule="evenodd" class="color46A4BC svgShape"/><path fill="#53b3cc" d="M2349.8 1052.57C2349.8 1031.81 2366.63 1014.99 2387.39 1014.99H2680.54C2701.3 1014.99 2718.12 1031.81 2718.12 1052.57V1345.72C2718.12 1366.48 2701.3 1383.31 2680.54 1383.31H2387.39C2366.63 1383.31 2349.8 1366.48 2349.8 1345.72V1052.57Z" class="color53B3CC svgShape"/><path fill="#ffffff" fill-rule="evenodd" d="M2673.12 1156.77L2488.06 1286.89C2470.8 1299.03 2446.76 1292.57 2437.9 1273.42L2393.57 1177.51L2441.34 1155.44L2476.22 1230.9L2642.86 1113.73L2673.12 1156.77Z" clip-rule="evenodd" class="colorfff svgShape"/><path fill="#3e3d3d" fill-rule="evenodd" d="M-2.92969 2631.08C-2.92969 2626.93 0.435663 2623.56 4.58703 2623.56H2992.48C2996.63 2623.56 3000 2626.93 3000 2631.08C3000 2635.23 2996.63 2638.6 2992.48 2638.6H4.58703C0.435663 2638.6 -2.92969 2635.23 -2.92969 2631.08Z" clip-rule="evenodd" class="color3E3D3D svgShape"/></g><defs><clipPath id="a"><rect width="3000" height="3000" fill="#ffffff" class="colorfff svgShape"/></clipPath></defs></svg>